<svg width="21" height="14" viewBox="0 0 21 14" fill="none" xmlns="http://www.w3.org/2000/svg">
<path d="M0.5 12.694V1.685C0.5 1.67225 0.519113 1.55121 0.557338 1.32185L7.03659 6.86457L0.576451 13.0762C0.525484 12.8979 0.5 12.7704 0.5 12.694ZM1.36008 0.557338C1.44927 0.519113 1.55758 0.5 1.685 0.5H19.135C19.2497 0.5 19.3644 0.519113 19.479 0.557338L12.9807 6.11917L12.1206 6.80723L10.4196 8.20247L8.71851 6.80723L7.85844 6.11917L1.36008 0.557338ZM1.37919 13.8216L7.89666 7.57175L10.4196 9.61682L12.9424 7.57175L19.4599 13.8216C19.358 13.8599 19.2497 13.879 19.135 13.879H1.685C1.58306 13.879 1.48112 13.8599 1.37919 13.8216ZM13.8025 6.86457L20.2627 1.32185C20.3009 1.43653 20.32 1.55758 20.32 1.685V12.694C20.32 12.8087 20.3009 12.9361 20.2627 13.0762L13.8025 6.86457Z" fill="#E63A27"/>
</svg>
