<svg width="21" height="21" viewBox="0 0 21 21" fill="none" xmlns="http://www.w3.org/2000/svg">
<path fill-rule="evenodd" clip-rule="evenodd" d="M6.11818 0.06246C7.22859 0.0115645 7.58253 0 10.41 0C13.238 0 13.5914 0.0121418 14.7012 0.06246C15.8099 0.112778 16.5669 0.289171 17.2291 0.546525C17.9237 0.808015 18.5528 1.21772 19.0728 1.74715C19.6023 2.26711 20.0121 2.89631 20.2735 3.59087C20.5308 4.25306 20.7066 5.01011 20.7575 6.11818C20.8085 7.22859 20.82 7.58253 20.82 10.41C20.82 13.2375 20.8079 13.5914 20.7575 14.7019C20.7072 15.8099 20.5308 16.5669 20.2735 17.2291C20.0075 17.9133 19.6511 18.4945 19.0728 19.0728C18.5529 19.6023 17.9237 20.0121 17.2291 20.2735C16.5669 20.5308 15.8099 20.7066 14.7019 20.7575C13.5914 20.8085 13.2375 20.82 10.41 20.82C7.58253 20.82 7.22859 20.8079 6.11818 20.7575C5.01011 20.7072 4.25306 20.5308 3.59087 20.2735C2.9067 20.0075 2.32548 19.6511 1.74715 19.0728C1.21763 18.5529 0.807892 17.9237 0.546525 17.2291C0.289171 16.5669 0.113355 15.8099 0.06246 14.7019C0.0115645 13.5914 0 13.238 0 10.41C0 7.58195 0.0121418 7.22859 0.06246 6.11877C0.112778 5.01011 0.289171 4.25306 0.546525 3.59087C0.808015 2.89636 1.21772 2.26718 1.74715 1.74715C2.2671 1.21763 2.8963 0.807892 3.59087 0.546525C4.25306 0.289171 5.01011 0.113355 6.11818 0.06246ZM14.6168 1.93626C13.5191 1.88652 13.1895 1.87553 10.41 1.87553C7.63053 1.87553 7.30088 1.88652 6.20321 1.93626C5.18823 1.98253 4.63708 2.15197 4.27041 2.29483C3.78461 2.48336 3.43761 2.70891 3.07326 3.07326C2.7095 3.43761 2.48336 3.78461 2.29483 4.27041C2.15197 4.63708 1.98253 5.18823 1.93626 6.20321C1.88652 7.30088 1.87553 7.63053 1.87553 10.41C1.87553 13.1895 1.88652 13.5191 1.93626 14.6168C1.98253 15.6318 2.15197 16.1829 2.29483 16.5496C2.4616 17.0018 2.7276 17.4108 3.07326 17.7468C3.40912 18.0924 3.81821 18.3584 4.27041 18.5252C4.63708 18.6681 5.18823 18.8375 6.20321 18.8837C7.30088 18.9335 7.62995 18.9445 10.41 18.9445C13.19 18.9445 13.5191 18.9335 14.6168 18.8837C15.6318 18.8375 16.1829 18.6681 16.5496 18.5252C17.0354 18.3366 17.3824 18.1111 17.7468 17.7468C18.0924 17.4109 18.3584 17.0018 18.5252 16.5496C18.6681 16.1829 18.8375 15.6318 18.8837 14.6168C18.9335 13.5191 18.9445 13.1895 18.9445 10.41C18.9445 7.63053 18.9335 7.30088 18.8837 6.20321C18.8375 5.18823 18.6681 4.63708 18.5252 4.27041C18.3366 3.78461 18.1111 3.43761 17.7468 3.07326C17.3824 2.7095 17.0354 2.48336 16.5496 2.29483C16.1829 2.15197 15.6318 1.98253 14.6168 1.93626ZM9.08083 13.619C9.50225 13.7936 9.95385 13.8834 10.41 13.8834C11.3313 13.8834 12.2147 13.5175 12.8661 12.8661C13.5176 12.2147 13.8835 11.3312 13.8835 10.41C13.8835 9.48881 13.5176 8.60528 12.8661 7.95388C12.2147 7.30248 11.3313 6.93652 10.41 6.93652C9.95385 6.93652 9.50225 7.02637 9.08083 7.20093C8.65932 7.37548 8.27645 7.63133 7.95391 7.95388C7.63137 8.27642 7.37551 8.65932 7.20096 9.08074C7.0264 9.50215 6.93656 9.95385 6.93656 10.41C6.93656 10.8661 7.0264 11.3178 7.20096 11.7393C7.37551 12.1607 7.63137 12.5436 7.95391 12.8661C8.27645 13.1886 8.65932 13.4445 9.08083 13.619ZM6.62649 6.62645C7.62994 5.62299 8.99093 5.05925 10.41 5.05925C11.8292 5.05925 13.1901 5.62299 14.1936 6.62645C15.197 7.62991 15.7607 8.99093 15.7607 10.41C15.7607 11.8291 15.197 13.19 14.1936 14.1936C13.1901 15.197 11.8292 15.7607 10.41 15.7607C8.99093 15.7607 7.62994 15.197 6.62649 14.1936C5.62303 13.19 5.05929 11.8291 5.05929 10.41C5.05929 8.99093 5.62303 7.62991 6.62649 6.62645ZM16.9472 5.85646C17.1844 5.61925 17.3176 5.29754 17.3176 4.9621C17.3176 4.62664 17.1844 4.30493 16.9472 4.06774C16.7099 3.83054 16.3883 3.69728 16.0528 3.69728C15.7174 3.69728 15.3956 3.83054 15.1585 4.06774C14.9212 4.30493 14.788 4.62664 14.788 4.9621C14.788 5.29754 14.9212 5.61925 15.1585 5.85646C15.3956 6.09365 15.7174 6.22691 16.0528 6.22691C16.3883 6.22691 16.7099 6.09365 16.9472 5.85646Z" fill="#E63A27"/>
</svg>
