<svg width="18" height="23" viewBox="0 0 18 23" fill="none" xmlns="http://www.w3.org/2000/svg">
<path d="M8.0457 22.4742C1.68134 13.2478 0.5 12.3009 0.5 8.91001C0.5 4.26527 4.26527 0.5 8.91 0.5C13.5547 0.5 17.32 4.26527 17.32 8.91001C17.32 12.3009 16.1387 13.2478 9.7743 22.4742C9.35665 23.0775 8.46331 23.0775 8.0457 22.4742ZM8.91 12.4142C10.8453 12.4142 12.4142 10.8453 12.4142 8.91001C12.4142 6.9747 10.8453 5.40584 8.91 5.40584C6.97469 5.40584 5.40583 6.9747 5.40583 8.91001C5.40583 10.8453 6.97469 12.4142 8.91 12.4142Z" fill="#E63A27"/>
</svg>
