<svg width="19" height="19" viewBox="0 0 19 19" fill="none" xmlns="http://www.w3.org/2000/svg">
<path d="M9.42356 0C4.21891 0 0 4.21891 0 9.42356C0 13.4155 2.48441 16.8237 5.99054 18.1962C5.90741 17.4499 5.83372 16.3079 6.0212 15.4943C6.19335 14.7573 7.12663 10.8114 7.12663 10.8114C7.12663 10.8114 6.84423 10.2431 6.84423 9.41118C6.84423 8.10294 7.60594 7.12368 8.54865 7.12368C9.3534 7.12368 9.7431 7.72562 9.7431 8.4502C9.7431 9.2579 9.23018 10.4677 8.96311 11.5884C8.73908 12.5252 9.43299 13.2893 10.3574 13.2893C12.0312 13.2893 13.3206 11.5236 13.3206 8.97491C13.3206 6.7269 11.6993 5.14865 9.38406 5.14865C6.70332 5.14865 5.13096 7.16318 5.13096 9.23549C5.13096 10.0461 5.44107 10.9181 5.83136 11.388C5.908 11.4829 5.91743 11.566 5.89562 11.6615C5.82487 11.9563 5.6651 12.6043 5.63444 12.7334C5.59141 12.9085 5.49943 12.945 5.31844 12.8625C4.14521 12.3189 3.40531 10.5991 3.40531 9.21132C3.40531 6.24228 5.56723 3.50907 9.63285 3.50907C12.9002 3.50907 15.4424 5.84256 15.4424 8.95014C15.4424 12.2022 13.3943 14.8181 10.5449 14.8181C9.58982 14.8181 8.69309 14.3234 8.37709 13.7339L7.78753 15.9724C7.57587 16.7925 6.9981 17.8207 6.6084 18.4445C7.49274 18.7145 8.42307 18.8654 9.39939 18.8654C14.5952 18.8654 18.82 14.6494 18.82 9.44184C18.82 4.23718 14.5946 0.0212242 9.39939 0.0212242L9.42356 0Z" fill="#E63A27"/>
</svg>
