<svg width="17" height="14" viewBox="0 0 17 14" fill="none" xmlns="http://www.w3.org/2000/svg">
<path d="M16.7879 1.62891C16.1693 1.90013 15.507 2.08673 14.809 2.17136C15.5212 1.74402 16.0657 1.06807 16.3254 0.262812C15.6573 0.651775 14.9183 0.93351 14.1325 1.09277C13.5059 0.422077 12.6103 0 11.6163 0C9.71092 0 8.16664 1.54376 8.16664 3.44652C8.16664 3.72037 8.19975 3.98318 8.25704 4.23233C5.39081 4.0983 2.84994 2.72116 1.15059 0.640737C0.852038 1.14744 0.682261 1.73614 0.682261 2.37688C0.682261 3.57583 1.29251 4.62707 2.21498 5.24521C1.65099 5.22892 1.12011 5.0728 0.654929 4.81577V4.8573C0.654929 6.52931 1.84284 7.92327 3.41972 8.24075C3.1322 8.31696 2.82523 8.36111 2.51354 8.36111C2.29225 8.36111 2.08095 8.33956 1.87017 8.30067C2.3138 9.66939 3.58371 10.666 5.09751 10.6959C3.92064 11.6184 2.42891 12.1682 0.821552 12.1682C0.547701 12.1682 0.274376 12.1551 0 12.122C1.53325 13.0996 3.34297 13.6715 5.29777 13.6715C11.6405 13.6715 15.1065 8.41788 15.1065 3.86807C15.1065 3.723 15.1065 3.5753 15.0954 3.42707C15.7719 2.94508 16.3574 2.3343 16.82 1.64205L16.7879 1.62891Z" fill="#E63A27"/>
</svg>
