<svg width="20" height="20" viewBox="0 0 20 20" fill="none" xmlns="http://www.w3.org/2000/svg">
<path d="M12.4979 17.4143C12.1039 16.3183 10.6929 12.6393 10.1079 11.1173C9.0049 11.8543 7.7739 12.5523 6.5959 13.0453C6.2299 14.3253 5.5019 16.7543 5.1499 17.0783C4.5459 17.6353 4.3179 17.5633 4.2249 16.7993C4.1319 16.0353 3.7399 13.5633 3.7399 13.5633C3.7399 13.5633 1.5779 12.3443 0.899903 11.9953C0.221903 11.6463 0.232903 11.4043 0.956903 11.0213C1.3789 10.7983 3.8839 10.9363 5.1989 11.0263C6.0599 10.0753 7.1299 9.14432 8.1919 8.34732C6.9769 7.27132 4.0419 4.67232 3.1579 3.92332C2.3819 3.26532 3.2369 3.12632 3.2369 3.12632C3.6269 3.05632 4.4589 2.99432 4.8649 3.11732C7.3889 3.88032 11.3069 5.18532 12.2279 5.49332L13.3899 4.67232C18.0919 1.34232 19.2769 2.07932 19.5009 2.40232C19.7249 2.72532 20.0039 4.10332 15.3019 7.43432L14.1419 8.25732C14.1129 9.23732 13.9849 13.4083 13.8309 16.0683C13.8059 16.4963 13.4639 17.2663 13.2659 17.6123C13.2649 17.6123 12.8429 18.3773 12.4979 17.4143Z" fill="#263173"/>
</svg>
