<svg width="47" height="41" viewBox="0 0 47 41" fill="none" xmlns="http://www.w3.org/2000/svg">
<path d="M10.0039 37.9373L9.83653 39.2617L10.8328 38.3731C20.5621 29.6957 22.5 17.3718 22.5 11.5C22.5 5.42487 17.5751 0.5 11.5 0.5C5.42487 0.5 0.5 5.42487 0.5 11.5C0.5 15.4096 1.54642 18.0557 3.45518 19.7771C5.25597 21.4011 7.74723 22.1296 10.6049 22.4142C10.6156 22.6281 10.6287 22.9191 10.6416 23.2789C10.6714 24.1098 10.7001 25.3078 10.6951 26.7719C10.6851 29.7014 10.5407 33.6911 10.0039 37.9373Z" stroke="#263173"/>
<path d="M33.084 37.9373L32.9166 39.2617L33.9129 38.3731C43.6421 29.6957 45.5801 17.3718 45.5801 11.5C45.5801 5.42487 40.6552 0.5 34.5801 0.5C28.5049 0.5 23.5801 5.42487 23.5801 11.5C23.5801 15.4096 24.6265 18.0557 26.5353 19.7771C28.336 21.4011 30.8273 22.1296 33.685 22.4142C33.6957 22.6281 33.7088 22.9191 33.7217 23.2789C33.7515 24.1098 33.7801 25.3078 33.7751 26.7719C33.7652 29.7014 33.6208 33.6911 33.084 37.9373Z" stroke="#263173"/>
</svg>
