<svg width="21" height="21" viewBox="0 0 21 21" fill="none" xmlns="http://www.w3.org/2000/svg">
<path d="M10.964 1.49717L13.0349 6.65414C13.2494 7.18845 13.7509 7.55278 14.3254 7.59173L19.8699 7.96768C20.3195 7.99817 20.5025 8.56126 20.1566 8.85023L15.892 12.4134C15.4502 12.7825 15.2586 13.372 15.3991 13.9304L16.7549 19.3197C16.8648 19.7568 16.3858 20.1048 16.0041 19.8652L11.2976 16.9103C10.8099 16.6042 10.1901 16.6042 9.70244 16.9103L4.99586 19.8652C4.61415 20.1048 4.13516 19.7568 4.24511 19.3197L5.60091 13.9304C5.74139 13.372 5.54984 12.7825 5.10799 12.4134L0.843367 8.85023C0.497502 8.56126 0.680461 7.99817 1.13013 7.96768L6.67463 7.59173C7.24909 7.55278 7.75056 7.18845 7.96512 6.65414L10.036 1.49717C10.204 1.07894 10.796 1.07894 10.964 1.49717Z" stroke="#263173"/>
</svg>
