<svg width="21" height="21" viewBox="0 0 21 21" fill="none" xmlns="http://www.w3.org/2000/svg">
<path d="M9.57203 1.31085C9.90793 0.474381 11.0921 0.47438 11.428 1.31085L13.4989 6.46782C13.6419 6.82402 13.9762 7.06691 14.3592 7.09288L19.9037 7.46882C20.803 7.5298 21.1689 8.65599 20.4772 9.23393L16.2126 12.7971C15.918 13.0432 15.7903 13.4362 15.884 13.8084L17.2398 19.1977C17.4597 20.0719 16.5017 20.7679 15.7383 20.2886L11.0317 17.3338C10.7066 17.1297 10.2934 17.1297 9.96829 17.3338L5.26171 20.2886C4.4983 20.7679 3.54031 20.0719 3.76022 19.1977L5.11602 13.8084C5.20967 13.4362 5.08198 13.0432 4.78741 12.7971L0.522782 9.23393C-0.168948 8.65599 0.196972 7.5298 1.0963 7.46882L6.64081 7.09288C7.02378 7.06691 7.35809 6.82402 7.50113 6.46782L9.57203 1.31085Z" fill="#263173"/>
</svg>
