<svg width="150" height="151" viewBox="0 0 150 151" fill="none" xmlns="http://www.w3.org/2000/svg">
<path d="M137.304 38.2L112.979 61.041L136.11 124.653L118.762 142.001L84.2032 91.4161L66.7156 107.304V124.653L49.367 142.001L39.1078 111.747L8.88672 101.521L26.2354 84.1725H43.5841L60.9327 66.8238L8.88672 32.1265L26.2354 14.7778L89.8472 37.9094L112.77 13.6653L112.277 14.0762C113.888 12.4624 115.8 11.1817 117.906 10.3075C120.011 9.43331 122.269 8.9827 124.549 8.98145C126.828 8.9802 129.086 9.42832 131.193 10.3002C133.299 11.1721 135.213 12.4507 136.825 14.0628C138.438 15.6749 139.716 17.5889 140.588 19.6955C141.46 21.802 141.908 24.0598 141.907 26.3397C141.905 28.6195 141.455 30.8768 140.581 32.9824C139.706 35.088 138.426 37.0006 136.812 38.611L137.304 38.2Z" stroke="#263173" stroke-width="16" stroke-linecap="round" stroke-linejoin="round"/>
</svg>
