<svg width="15" height="15" viewBox="0 0 15 15" fill="none" xmlns="http://www.w3.org/2000/svg">
<mask id="mask0_655_42" style="mask-type:luminance" maskUnits="userSpaceOnUse" x="0" y="0" width="15" height="15">
<path d="M14.028 0H0V14.028H14.028V0Z" fill="white"/>
</mask>
<g mask="url(#mask0_655_42)">
<path d="M12.4498 12.2745C12.9759 11.8361 14.028 10.8717 14.028 9.46892C14.028 8.24147 12.9759 7.18936 11.5731 6.57564C12.0115 6.04959 12.2745 5.26051 12.2745 4.47143C12.2745 2.01653 9.73193 0 6.48795 0C3.41933 0 0 1.84118 0 4.47143C0 6.31261 1.4028 7.62774 2.01652 8.15379C1.92885 9.20589 1.49048 9.64427 1.49048 9.64427L0.438375 10.521H1.7535C2.8056 10.521 3.68235 10.258 4.38375 9.90729C4.64677 11.5731 6.57563 12.8882 9.03053 12.8882H9.4689C9.99495 13.3266 11.0471 14.028 12.5375 14.028H13.765L12.8006 13.2389C12.8006 13.2389 12.5375 12.9759 12.4498 12.2745ZM9.03053 12.0115C7.014 12.0115 5.2605 10.8717 5.2605 9.55659V9.38124C5.43585 9.20589 5.6112 9.11822 5.69887 8.94287H6.3126C8.15377 8.94287 9.8196 8.32914 10.8717 7.27704C12.1868 7.71541 13.1512 8.59217 13.1512 9.46892C13.1512 10.3457 12.3622 11.2224 11.6608 11.6608L11.3977 11.8361V12.0992C11.3977 12.5375 11.5731 12.8006 11.6608 13.0636C10.784 12.8882 10.1703 12.4499 9.99495 12.1868L9.90728 12.0115H9.03053ZM6.48795 0.876752C9.20587 0.876752 11.3977 2.54258 11.3977 4.47143C11.3977 6.40029 9.1182 8.06611 6.3126 8.06611H5.34817L5.2605 8.24146C4.99747 8.59217 3.94538 9.29357 2.54258 9.55659C2.63025 9.20589 2.63025 8.67984 2.63025 7.97844V7.71541C1.7535 7.01401 0.789075 5.78656 0.789075 4.55911C0.789075 2.63025 3.59468 0.876752 6.48795 0.876752Z" fill="#263173"/>
</g>
</svg>
