<svg width="48" height="48" viewBox="0 0 48 48" fill="none" xmlns="http://www.w3.org/2000/svg">
<path d="M47 15L24 3L1 15L24 27C35.11 21.21 34 21.88 34 21.59L23.52 15.88C23.2866 15.7474 23.1155 15.5275 23.0442 15.2687C22.9729 15.0099 23.0074 14.7334 23.14 14.5C23.2726 14.2666 23.4925 14.0955 23.7513 14.0242C24.0101 13.9529 24.2866 13.9874 24.52 14.12L35.52 20.12C36.52 20.7 34.98 21.29 38.04 19.7L47 15Z" fill="#263173"/>
<path d="M24 29.2601L10 22.0001V29.0001C10 34.2401 25.1 37.1101 34 33.1901V24.0501L24 29.2601ZM38 29.0001V22.0001L36 23.0001V32.0901C36.5564 31.7728 37.0285 31.3265 37.3765 30.7888C37.7246 30.2511 37.9384 29.6376 38 29.0001ZM34 24.0501L36 23.0001V21.0001C36 20.6301 36.16 20.6601 34 21.7901V24.0501ZM34 39.2801C32.67 40.0501 33 41.1901 33 45.0001H37V41.0001C36.9979 40.6511 36.9045 40.3087 36.729 40.0069C36.5536 39.7052 36.3023 39.4546 36 39.2801V32.0901C35.3733 32.5251 34.703 32.8938 34 33.1901V39.2801Z" fill="#263173"/>
</svg>
