<svg width="15" height="15" viewBox="0 0 15 15" fill="none" xmlns="http://www.w3.org/2000/svg">
<path d="M7.014 0C5.15442 0.00211737 3.37161 0.74177 2.05669 2.05669C0.74177 3.37161 0.00211737 5.15442 0 7.014C0 8.888 0.73 10.649 2.055 11.973C2.70456 12.6265 3.47734 13.1447 4.32857 13.4974C5.17981 13.8502 6.09257 14.0305 7.014 14.028C8.87358 14.0259 10.6564 13.2862 11.9713 11.9713C13.2862 10.6564 14.0259 8.87358 14.028 7.014C14.0259 5.15442 13.2862 3.37161 11.9713 2.05669C10.6564 0.74177 8.87358 0.00211737 7.014 0ZM7.014 1C8.60844 1.00185 10.1371 1.63606 11.2645 2.76351C12.3919 3.89095 13.0261 5.41956 13.028 7.014C13.0266 8.52614 12.4528 9.98169 11.422 11.088C10.7415 10.2824 9.85544 9.67628 8.858 9.334C9.20428 9.05318 9.48359 8.69869 9.6756 8.29632C9.86762 7.89395 9.96751 7.45383 9.968 7.008C9.96682 6.61375 9.88787 6.22361 9.73566 5.85992C9.58346 5.49624 9.36099 5.16616 9.08101 4.88859C8.80103 4.61103 8.46903 4.39143 8.10404 4.24238C7.73905 4.09333 7.34824 4.01776 6.954 4.02C6.55992 4.02118 6.16994 4.10007 5.80639 4.25215C5.44284 4.40423 5.11284 4.62651 4.8353 4.90628C4.55776 5.18605 4.33812 5.51781 4.18896 5.88257C4.03979 6.24733 3.96403 6.63792 3.966 7.032C3.966 7.961 4.402 8.782 5.07 9.33C4.09284 9.66304 3.2213 10.2489 2.544 11.028C1.54803 9.92859 0.997542 8.49746 1 7.014C1.00185 5.41956 1.63606 3.89095 2.76351 2.76351C3.89095 1.63606 5.41956 1.00185 7.014 1ZM6.979 5.02C8.076 5.02 8.967 5.912 8.967 7.032C8.96572 7.54714 8.76453 8.04167 8.40581 8.41139C8.04709 8.78112 7.55887 8.99716 7.044 9.014C7.015 9.014 6.987 9.008 6.958 9.008C6.933 9.008 6.909 9.013 6.884 9.014C6.36671 8.99376 5.87757 8.77314 5.52001 8.39878C5.16244 8.02442 4.96449 7.52567 4.968 7.008C4.968 5.912 5.859 5.02 6.979 5.02ZM6.883 10.012C6.907 10.013 6.931 10.02 6.955 10.02H6.979C7.001 10.02 7.019 10.013 7.041 10.012C7.73863 10.0242 8.42537 10.1871 9.05417 10.4895C9.68296 10.7919 10.2389 11.2266 10.684 11.764C9.63587 12.5828 8.34407 13.0278 7.014 13.028C5.65379 13.0308 4.33349 12.5685 3.272 11.718C3.7182 11.1935 4.27103 10.7701 4.89367 10.4759C5.51631 10.1817 6.19447 10.0236 6.883 10.012Z" fill="#263173"/>
</svg>
