<svg width="101" height="124" viewBox="0 0 101 124" fill="none" xmlns="http://www.w3.org/2000/svg">
<g clip-path="url(#clip0_658_56)">
<path fill-rule="evenodd" clip-rule="evenodd" d="M25.85 39.9C33.48 48.09 45.27 37.36 56.76 34.36C63.28 32.65 66.79 44.23 75.2 40L75.99 49.16C81.22 47.98 77.5 64.11 72.96 63.27C71.47 68.2 70.9 71.69 68.46 74.96C63.88 81.08 56.48 84.2 50.55 84.07C44.95 83.95 37.83 80.87 33.27 75.23C30.46 71.76 29.55 67.94 27.81 62.61C22.98 64.05 19.74 47.68 24.99 49.08L25.85 39.9ZM58.98 14.34V16.36C58.98 17.3 58.21 18.06 57.28 18.06H53.85V21.49C53.85 22.43 53.08 23.19 52.15 23.19H50.13C49.19 23.19 48.43 22.42 48.43 21.49V18.06H45C44.06 18.06 43.3 17.29 43.3 16.36V14.34C43.3 13.4 44.07 12.64 45 12.64H48.43V9.2C48.43 8.26 49.2 7.5 50.13 7.5H52.15C53.09 7.5 53.85 8.27 53.85 9.2V12.63H57.28C58.21 12.64 58.98 13.4 58.98 14.34ZM38.96 0H63.3C64.14 0 65.02 0.12 65.89 0.35C67.77 0.84 69.54 1.85 70.86 3.19C72.35 4.72 73.31 6.67 73.31 8.85C73.31 9.44 73.23 10.07 73.06 10.73L70.79 19.41C71.48 20.16 72.14 20.97 72.75 21.84C86.18 40.92 90.64 75.28 68.58 79.71C71.51 81.6 75.1 81.92 78.79 81.71C89.9 81.99 97.64 86.75 100.75 97.69V117.55C100.74 120.44 99.01 122.42 94.88 123.12H55.12L64.92 80.39C63.67 81.35 62.35 82.18 61 82.87C57.53 84.64 53.81 85.5 50.52 85.43C47.41 85.36 43.87 84.44 40.52 82.73C39 81.95 37.51 81 36.11 79.89L35.71 79.8L45.62 123.11H5.87C1.74 122.41 0.02 120.43 0 117.54V97.69C3.1 86.74 10.85 81.99 21.96 81.71C25.97 81.94 29.86 81.52 32.94 79.17C21.59 76.36 16.78 72.34 16.78 56.11V50.57C17.49 38.43 20.55 27.68 27.09 19.82C28.06 18.65 29.3 17.56 30.75 16.57L29.22 10.73C29.05 10.07 28.97 9.44 28.97 8.85C28.97 6.67 29.92 4.72 31.42 3.19C32.73 1.85 34.51 0.84 36.38 0.35C37.24 0.12 38.11 0 38.96 0ZM38.96 3.43H63.3C66.84 3.43 70.63 6.44 69.73 9.86L67.92 16.77L66.7 21.42C65.81 24.84 63.8 27.85 60.27 27.85H41.97C38.44 27.85 36.43 24.84 35.54 21.42L33.8 14.76L32.52 9.85C31.63 6.44 35.42 3.43 38.96 3.43ZM69.82 107.5H82.72V110.59H69.82V107.5ZM48.89 123.12L42.32 101.32C47.47 102.41 52.88 102.52 58.64 101.32L52.37 123.12H48.89ZM47.79 64.3C47.48 64.01 47.46 63.51 47.74 63.19C48.02 62.87 48.49 62.85 48.8 63.14C49.34 63.66 49.86 63.91 50.35 63.9C50.85 63.89 51.38 63.63 51.93 63.12C52.24 62.84 52.72 62.87 52.99 63.2C53.26 63.53 53.23 64.03 52.91 64.31C52.09 65.06 51.24 65.46 50.36 65.47C49.48 65.49 48.63 65.11 47.79 64.3ZM67.42 49.13C67.74 49.41 67.78 49.91 67.52 50.24C67.26 50.58 66.78 50.62 66.46 50.35C65.03 49.1 62.21 49.64 59.78 50.1C58.51 50.34 57.34 50.56 56.41 50.53C56 50.51 55.67 50.15 55.69 49.71C55.7 49.27 56.05 48.93 56.47 48.95C57.24 48.98 58.33 48.77 59.52 48.55C62.26 48.02 65.46 47.41 67.42 49.13ZM41.36 55.98C41.43 56.19 41.47 56.41 41.47 56.64C41.47 57.71 40.65 58.57 39.64 58.57C38.63 58.57 37.81 57.71 37.81 56.64C37.81 56.26 37.91 55.9 38.09 55.61C37.08 55.67 36.07 55.9 35.05 56.32C34.7 56.47 34.31 56.24 34.19 55.82C34.07 55.4 34.26 54.93 34.61 54.79C35.97 54.23 37.34 53.97 38.72 53.98C40.09 53.99 41.45 54.27 42.81 54.79C43.17 54.92 43.36 55.38 43.25 55.81C43.14 56.24 42.76 56.48 42.4 56.34C42.06 56.2 41.71 56.08 41.36 55.98ZM59.45 55.81C59.39 56.01 59.35 56.22 59.35 56.44C59.35 57.51 60.17 58.37 61.18 58.37C62.19 58.37 63.01 57.51 63.01 56.44C63.01 56.1 62.93 55.78 62.78 55.51C63.78 55.58 64.78 55.78 65.8 56.13C66.16 56.25 66.53 56 66.63 55.57C66.73 55.14 66.52 54.69 66.17 54.57C64.8 54.1 63.44 53.86 62.07 53.87C60.71 53.87 59.36 54.11 58.02 54.58C57.66 54.7 57.46 55.15 57.56 55.58C57.66 56.01 58.04 56.26 58.39 56.13C58.75 56.01 59.1 55.9 59.45 55.81ZM34.36 50.55C34.04 50.83 33.57 50.78 33.3 50.44C33.04 50.1 33.08 49.61 33.4 49.33C35.36 47.62 38.56 48.22 41.3 48.75C42.49 48.98 43.58 49.18 44.35 49.15C44.76 49.13 45.11 49.48 45.13 49.91C45.14 50.35 44.82 50.71 44.41 50.73C43.48 50.76 42.31 50.54 41.04 50.3C38.62 49.84 35.79 49.3 34.36 50.55ZM43.88 70.8C43.56 70.53 43.51 70.03 43.77 69.69C44.03 69.35 44.5 69.3 44.82 69.57C46.88 71.31 48.8 72.16 50.61 72.15C52.38 72.14 54.08 71.29 55.71 69.62C56.01 69.32 56.48 69.32 56.77 69.64C57.06 69.95 57.05 70.45 56.75 70.76C54.84 72.73 52.79 73.73 50.61 73.74C48.45 73.74 46.21 72.77 43.88 70.8Z" fill="#263173"/>
</g>
<defs>
<clipPath id="clip0_658_56">
<rect width="100.74" height="123.12" fill="white"/>
</clipPath>
</defs>
</svg>
