<svg width="20" height="21" viewBox="0 0 20 21" fill="none" xmlns="http://www.w3.org/2000/svg">
<path d="M19 8.00049C19.1313 8.00052 19.2614 7.97468 19.3827 7.92444C19.5041 7.87419 19.6143 7.80053 19.7072 7.70767C19.8 7.6148 19.8737 7.50455 19.9239 7.38321C19.9742 7.26187 20 7.13182 20 7.00049V4.00049C20.0001 3.79066 19.9341 3.58614 19.8114 3.41593C19.6887 3.24572 19.5155 3.11848 19.3164 3.05225L10.3164 0.0522459C10.111 -0.0161132 9.88899 -0.0161132 9.68359 0.0522459L0.68359 3.05225C0.484493 3.11848 0.311309 3.24572 0.188606 3.41593C0.0659032 3.58614 -8.61316e-05 3.79066 8.43742e-08 4.00049V7.00049C-3.40751e-05 7.13182 0.0258085 7.26187 0.0760511 7.38321C0.126294 7.50455 0.199952 7.6148 0.292817 7.70767C0.385683 7.80053 0.495935 7.87419 0.617276 7.92444C0.738617 7.97468 0.868669 8.00052 1 8.00049H2V15.1848C1.41674 15.3902 0.911365 15.7712 0.553267 16.2753C0.195169 16.7795 0.00190247 17.3821 8.43742e-08 18.0005V20.0005C-3.40751e-05 20.1318 0.0258085 20.2619 0.0760511 20.3832C0.126294 20.5046 0.199952 20.6148 0.292817 20.7077C0.385683 20.8005 0.495935 20.8742 0.617276 20.9244C0.738617 20.9747 0.868669 21.0005 1 21.0005H19C19.1313 21.0005 19.2614 20.9747 19.3827 20.9244C19.5041 20.8742 19.6143 20.8005 19.7072 20.7077C19.8 20.6148 19.8737 20.5046 19.9239 20.3832C19.9742 20.2619 20 20.1318 20 20.0005V18.0005C19.9981 17.3821 19.8048 16.7795 19.4467 16.2753C19.0886 15.7712 18.5833 15.3902 18 15.1848V8.00049H19ZM18 19.0005H2V18.0005C2.00026 17.7354 2.10571 17.4812 2.29319 17.2937C2.48066 17.1062 2.73486 17.0008 3 17.0005H17C17.2651 17.0008 17.5193 17.1062 17.7068 17.2937C17.8943 17.4812 17.9997 17.7354 18 18.0005V19.0005ZM4 15.0005V8.00049H6V15.0005H4ZM8 15.0005V8.00049H12V15.0005H8ZM14 15.0005V8.00049H16V15.0005H14ZM2 6.00049V4.72119L10 2.05419L18 4.72119V6.00049H2Z" fill="#263173"/>
</svg>
