<svg width="22" height="17" viewBox="0 0 22 17" fill="none" xmlns="http://www.w3.org/2000/svg">
<path d="M3.30089 7.50155C4.51432 7.50155 5.50089 6.51499 5.50089 5.30155C5.50089 4.08811 4.51432 3.10155 3.30089 3.10155C2.08745 3.10155 1.10089 4.08811 1.10089 5.30155C1.10089 6.51499 2.08745 7.50155 3.30089 7.50155ZM18.7009 7.50155C19.9143 7.50155 20.9009 6.51499 20.9009 5.30155C20.9009 4.08811 19.9143 3.10155 18.7009 3.10155C17.4874 3.10155 16.5009 4.08811 16.5009 5.30155C16.5009 6.51499 17.4874 7.50155 18.7009 7.50155ZM19.8009 8.60155H17.6009C16.9959 8.60155 16.4493 8.84561 16.0506 9.24092C17.4359 10.0006 18.419 11.3722 18.6321 13.0015H20.9009C21.5093 13.0015 22.0009 12.51 22.0009 11.9015V10.8015C22.0009 9.58811 21.0143 8.60155 19.8009 8.60155ZM11.0009 8.60155C13.1287 8.60155 14.8509 6.87936 14.8509 4.75155C14.8509 2.62374 13.1287 0.90155 11.0009 0.90155C8.87307 0.90155 7.15089 2.62374 7.15089 4.75155C7.15089 6.87936 8.87307 8.60155 11.0009 8.60155ZM13.6409 9.70155H13.3556C12.6406 10.0453 11.8465 10.2515 11.0009 10.2515C10.1553 10.2515 9.36464 10.0453 8.6462 9.70155H8.36089C6.17464 9.70155 4.40089 11.4753 4.40089 13.6615V14.6515C4.40089 15.5625 5.13995 16.3015 6.05089 16.3015H15.9509C16.8618 16.3015 17.6009 15.5625 17.6009 14.6515V13.6615C17.6009 11.4753 15.8271 9.70155 13.6409 9.70155ZM5.9512 9.24092C5.55245 8.84561 5.00589 8.60155 4.40089 8.60155H2.20089C0.987448 8.60155 0.00088501 9.58811 0.00088501 10.8015V11.9015C0.00088501 12.51 0.492447 13.0015 1.10089 13.0015H3.3662C3.58276 11.3722 4.56589 10.0006 5.9512 9.24092Z" fill="#263173"/>
</svg>
