<svg width="47" height="25" viewBox="0 0 47 25" fill="none" xmlns="http://www.w3.org/2000/svg">
<path d="M23.5073 14.7536C26.2539 14.7536 28.9564 10.2886 28.9564 5.74281C28.9564 0.998749 25.9895 0 23.5073 0C21.0105 0 18.0583 0.998749 18.0583 5.74281C18.0583 10.2886 20.7534 14.7536 23.5073 14.7536ZM32.643 18.1391C31.4973 17.7866 30.1534 17.2137 28.67 16.4353C27.965 16.0534 27.2159 15.6348 26.4595 15.1795C25.5783 15.8625 24.5795 16.2664 23.5073 16.2664C22.4352 16.2664 21.4364 15.8625 20.5478 15.1795C19.9603 15.5394 19.1966 15.9873 18.33 16.4353C17.9261 16.6483 17.5369 16.8392 17.1697 17.0155C16.1342 17.5075 15.2016 17.882 14.3644 18.1391C11.3241 19.0864 10.553 23.1548 10.3694 24.8733H36.638C36.447 23.1622 35.6906 19.0937 32.643 18.1391ZM37.387 14.0706C37.9452 14.0706 38.4886 13.8136 38.988 13.373C39.01 13.3583 39.0247 13.3362 39.0467 13.3216C40.3025 12.1686 41.2645 9.86266 41.2645 7.52C41.2645 4.12719 39.1495 3.41484 37.3797 3.41484C35.6025 3.41484 33.4875 4.12719 33.4875 7.52C33.4875 9.87 34.4642 12.1906 35.7273 13.3362C36.2561 13.7916 36.8216 14.0706 37.387 14.0706ZM44.18 16.9787C43.3281 16.7217 42.3514 16.3031 41.1691 15.6936C40.5669 15.3778 40.0308 15.062 39.6122 14.8123C38.9439 15.297 38.1875 15.5908 37.3944 15.5908C36.5866 15.5908 35.8375 15.3044 35.1692 14.8123C34.6478 15.1281 34.1264 15.4292 33.6123 15.6936C33.113 15.958 32.6356 16.1856 32.195 16.3766C32.5108 16.5014 32.8119 16.5969 33.0983 16.685C35.5658 17.4561 36.8436 19.6298 37.5045 21.642H47C46.8311 20.2981 46.2289 17.625 44.18 16.9787ZM8.01203 13.3656C8.51141 13.8062 9.06219 14.0633 9.61297 14.0633C10.1784 14.0633 10.7366 13.7989 11.2506 13.3436C11.2653 13.3289 11.2727 13.3216 11.28 13.3142C12.5431 12.1612 13.5052 9.85531 13.5052 7.51266C13.5052 4.11984 11.3902 3.4075 9.61297 3.4075C7.84313 3.4075 5.72813 4.11984 5.72813 7.51266C5.72813 9.84797 6.68281 12.1539 7.93859 13.3069C7.96797 13.3289 7.99 13.3436 8.01203 13.3656ZM13.9164 16.6923C14.2028 16.6116 14.5113 16.5014 14.8197 16.3839C14.3791 16.1856 13.9091 15.958 13.395 15.7009C12.7928 15.3925 12.2641 15.0767 11.8381 14.8197C11.1698 15.3044 10.4208 15.5981 9.62031 15.5981C8.81984 15.5981 8.07078 15.3117 7.4025 14.8197C7.00594 15.062 6.46984 15.3778 5.83828 15.7009C4.67797 16.3105 3.68656 16.7291 2.84203 16.9861C0.778437 17.625 0.17625 20.2981 0 21.6494H9.50281C10.1637 19.6298 11.4416 17.4561 13.9164 16.6923Z" fill="#FFE500"/>
</svg>
