<svg width="624" height="512" viewBox="0 0 624 512" fill="none" xmlns="http://www.w3.org/2000/svg">
<path d="M224 256C153.3 256 96 198.7 96 128C96 57.3 153.3 0 224 0C294.7 0 352 57.3 352 128C352 198.7 294.7 256 224 256ZM178.3 304H269.7C281.5 304 293.1 305.2 304.2 307.3C302.1 325.8 311.6 342.9 326 352.1C309.4 362.7 299.3 383.7 306 405.4C310 418.3 315.4 430.9 322.4 443C329.4 455.1 337.6 466.1 346.8 476C362.5 492.9 386.4 494.4 404 484.7V485.6C404 494.8 406.7 504.1 411.9 511.9H29.7C13.3 512 0 498.7 0 482.3C0 383.8 79.8 304 178.3 304ZM436 218.2C436 211.2 440.5 204.9 447.3 203.4C457.8 201 468.8 199.7 480 199.7C491.2 199.7 502.2 201 512.7 203.4C519.5 204.9 524 211.2 524 218.2V248.8C531.9 252.2 539.4 256.5 546.3 261.6L571.2 247.3C577.3 243.8 584.9 244.6 589.7 249.7C597.3 257.8 604 266.9 609.8 276.9C615.6 286.9 620.1 297.3 623.3 307.9C625.4 314.6 622.2 321.6 616.1 325.1L591.1 339.5C591.5 343.5 591.8 347.6 591.8 351.8C591.8 356 591.6 360 591.1 364.1L616.1 378.5C622.2 382 625.3 389 623.3 395.7C620 406.3 615.5 416.7 609.8 426.7C604.1 436.7 597.3 445.8 589.7 453.9C584.9 459 577.2 459.8 571.2 456.3L546.3 442C539.4 447.1 532 451.4 524 454.8V485.4C524 492.4 519.5 498.7 512.7 500.2C502.2 502.6 491.2 503.9 480 503.9C468.8 503.9 457.8 502.6 447.3 500.2C440.5 498.7 436 492.4 436 485.4V454.8C428 451.4 420.4 447.1 413.5 441.9L388.8 456.2C382.7 459.7 375.1 458.9 370.3 453.8C362.7 445.7 356 436.6 350.2 426.6C344.4 416.6 339.9 406.2 336.7 395.6C334.6 388.9 337.8 381.9 343.9 378.4L368.7 364.1C368.3 360 368 355.9 368 351.7C368 347.5 368.2 343.4 368.7 339.3L343.8 325C337.7 321.5 334.6 314.5 336.6 307.8C339.9 297.2 344.3 286.8 350.1 276.8C355.9 266.8 362.6 257.7 370.2 249.6C375 244.5 382.6 243.7 388.7 247.2L413.5 261.5C420.4 256.4 428 252.1 436 248.6V218.2ZM528.1 351.7C528.1 325.2 506.6 303.7 480 303.7C453.4 303.7 431.9 325.2 431.9 351.7C431.9 378.2 453.4 399.7 480 399.7C506.6 399.7 528.1 378.2 528.1 351.7Z" fill="#263173"/>
</svg>
